<svg width="20" height="20" viewBox="0 0 20 20" fill="none" xmlns="http://www.w3.org/2000/svg">
<path d="M15 6.66665H14.1667V4.99998C14.1667 2.69998 12.3 0.833313 10 0.833313C7.70004 0.833313 5.83337 2.69998 5.83337 4.99998V6.66665H5.00004C4.08337 6.66665 3.33337 7.41665 3.33337 8.33331V16.6666C3.33337 17.5833 4.08337 18.3333 5.00004 18.3333H15C15.9167 18.3333 16.6667 17.5833 16.6667 16.6666V8.33331C16.6667 7.41665 15.9167 6.66665 15 6.66665ZM10 14.1666C9.08337 14.1666 8.33337 13.4166 8.33337 12.5C8.33337 11.5833 9.08337 10.8333 10 10.8333C10.9167 10.8333 11.6667 11.5833 11.6667 12.5C11.6667 13.4166 10.9167 14.1666 10 14.1666ZM12.5834 6.66665H7.41671V4.99998C7.41671 3.57498 8.57504 2.41665 10 2.41665C11.425 2.41665 12.5834 3.57498 12.5834 4.99998V6.66665Z" fill="#A5B0C1"/>
</svg>
